<svg width="40" height="40" viewBox="0 0 40 40" fill="none" xmlns="http://www.w3.org/2000/svg">
<mask id="mask0_2_178" style="mask-type:alpha" maskUnits="userSpaceOnUse" x="0" y="0" width="40" height="40">
<rect width="40" height="40" transform="matrix(-1 0 0 1 40 0)" fill="#1999B2"/>
</mask>
<g mask="url(#mask0_2_178)">
<path d="M30.2501 28.4999C28.8334 27.4166 27.2501 26.5621 25.5001 25.9366C23.7501 25.3121 21.9167 24.9999 20.0001 24.9999C18.0834 24.9999 16.2501 25.3121 14.5001 25.9366C12.7501 26.5621 11.1667 27.4166 9.75008 28.4999C8.77786 27.361 8.02064 26.0693 7.47841 24.6249C6.9373 23.1804 6.66675 21.6388 6.66675 19.9999C6.66675 16.3054 7.96508 13.1593 10.5617 10.5616C13.1595 7.96489 16.3056 6.66655 20.0001 6.66655C23.6945 6.66655 26.8401 7.96489 29.4367 10.5616C32.0345 13.1593 33.3334 16.3054 33.3334 19.9999C33.3334 21.6388 33.0623 23.1804 32.5201 24.6249C31.979 26.0693 31.2223 27.361 30.2501 28.4999ZM20.0001 21.6666C21.639 21.6666 23.0212 21.1043 24.1467 19.9799C25.2712 18.8543 25.8334 17.4721 25.8334 15.8332C25.8334 14.1943 25.2712 12.8121 24.1467 11.6866C23.0212 10.5621 21.639 9.99989 20.0001 9.99989C18.3612 9.99989 16.979 10.5621 15.8534 11.6866C14.729 12.8121 14.1667 14.1943 14.1667 15.8332C14.1667 17.4721 14.729 18.8543 15.8534 19.9799C16.979 21.1043 18.3612 21.6666 20.0001 21.6666ZM20.0001 36.6666C22.3056 36.6666 24.4723 36.2288 26.5001 35.3532C28.5279 34.4788 30.2917 33.2916 31.7917 31.7916C33.2917 30.2916 34.479 28.5277 35.3534 26.4999C36.229 24.4721 36.6667 22.3054 36.6667 19.9999C36.6667 17.6943 36.229 15.5277 35.3534 13.4999C34.479 11.4721 33.2917 9.70822 31.7917 8.20822C30.2917 6.70822 28.5279 5.52044 26.5001 4.64489C24.4723 3.77044 22.3056 3.33322 20.0001 3.33322C17.6945 3.33322 15.5279 3.77044 13.5001 4.64489C11.4723 5.52044 9.70841 6.70822 8.20841 8.20822C6.70841 9.70822 5.52119 11.4721 4.64675 13.4999C3.77119 15.5277 3.33342 17.6943 3.33342 19.9999C3.33342 22.3054 3.77119 24.4721 4.64675 26.4999C5.52119 28.5277 6.70841 30.2916 8.20841 31.7916C9.70841 33.2916 11.4723 34.4788 13.5001 35.3532C15.5279 36.2288 17.6945 36.6666 20.0001 36.6666ZM20.0001 33.3332C18.5279 33.3332 17.139 33.1182 15.8334 32.6882C14.5279 32.2571 13.3334 31.6388 12.2501 30.8332C13.3334 30.0277 14.5279 29.4093 15.8334 28.9782C17.139 28.5482 18.5279 28.3332 20.0001 28.3332C21.4723 28.3332 22.8612 28.5482 24.1667 28.9782C25.4723 29.4093 26.6667 30.0277 27.7501 30.8332C26.6667 31.6388 25.4723 32.2571 24.1667 32.6882C22.8612 33.1182 21.4723 33.3332 20.0001 33.3332ZM20.0001 18.3332C19.2779 18.3332 18.6806 18.0971 18.2084 17.6249C17.7362 17.1527 17.5001 16.5554 17.5001 15.8332C17.5001 15.111 17.7362 14.5138 18.2084 14.0416C18.6806 13.5693 19.2779 13.3332 20.0001 13.3332C20.7223 13.3332 21.3195 13.5693 21.7917 14.0416C22.264 14.5138 22.5001 15.111 22.5001 15.8332C22.5001 16.5554 22.264 17.1527 21.7917 17.6249C21.3195 18.0971 20.7223 18.3332 20.0001 18.3332Z" fill="#CFCFCF"/>
</g>
</svg>
