<svg width="30" height="40" viewBox="0 0 30 40" fill="none" xmlns="http://www.w3.org/2000/svg">
<path d="M29.2367 7.1596C29.8185 6.58116 30.0861 6.21619 29.9756 4.64613C29.9232 3.44792 30.2141 2.32547 28.9342 1.65751C28.6317 1.49912 28.6375 1.50601 28.3524 1.09972C27.602 -0.0640506 27.0784 -0.394589 26.1243 0.548823C26.0403 0.668998 25.9344 0.764947 25.8144 0.829381C25.6945 0.893815 25.5637 0.925038 25.432 0.920679C25.0526 0.919672 24.6812 1.04935 24.363 1.2939C24.0449 1.53845 23.7937 1.88731 23.6402 2.29792C23.5878 2.45554 23.5038 2.59565 23.3953 2.70606C23.2868 2.81647 23.1572 2.89384 23.0177 2.93146C22.1974 3.31709 22.0694 3.58565 21.7262 4.68056C21.2879 4.5713 20.8364 4.5573 20.3939 4.63924C20.1162 4.76662 19.8714 4.97793 19.6842 5.25211C19.37 5.64463 19.3875 5.72038 18.5963 5.43116C18.2422 5.25119 17.8576 5.17119 17.4729 5.19748C17.0882 5.22378 16.714 5.35564 16.3797 5.58265C15.7049 5.93385 15.798 5.92696 14.1458 5.64463C13.0986 5.47247 13.4011 5.56199 12.9822 5.38295C11.5918 4.79762 10.2887 4.48086 8.90989 5.19702C8.59881 5.3883 8.24559 5.46182 7.89805 5.40763C7.5505 5.35343 7.22542 5.17414 6.9668 4.89403C6.31523 4.33625 5.90799 4.07457 4.53503 4.58415C4.11387 4.77733 3.65245 4.81101 3.21443 4.68056C2.66836 4.51432 2.08954 4.59536 1.59131 4.9078C0.835013 5.51379 0.899007 6.75331 0.712843 7.57966C0.579037 8.16499 -0.0492676 8.9569 0.00309113 10.0725C0.0613602 10.5865 0.220775 11.0771 0.468502 11.5048C0.928095 12.4551 0.875737 12.4758 0.689572 13.1231C0.522234 13.5277 0.443586 13.9757 0.460869 14.4258C0.478152 14.8758 0.59081 15.3135 0.788472 15.6985C1.10262 16.4767 1.09681 16.518 0.788472 17.2548C0.595693 17.6676 0.484316 18.1267 0.462685 18.5976C0.462685 19.4515 1.04445 20.2916 1.04445 20.7048C1.07354 21.3314 0.57322 22.1371 0.753566 22.991C0.899007 23.6796 1.47495 24.0102 1.66112 24.2168C1.73675 24.4371 1.44005 25.2704 1.77165 25.8764C2.10326 26.4823 2.83628 26.565 3.0399 26.6683C3.25515 26.9024 3.33078 27.7907 3.91254 28.0455C4.15366 28.1533 4.41453 28.184 4.66885 28.1344C4.92317 28.0849 5.16196 27.9568 5.36114 27.7632C5.36114 28.2728 5.36114 28.7479 5.42513 29.2299C5.51239 30.0356 6.06507 31.0617 6.58866 31.0617C6.71662 31.0632 6.84142 31.0147 6.94373 30.9237C7.04605 30.8327 7.12018 30.7044 7.15463 30.5585C7.18908 30.4126 7.18194 30.2574 7.13432 30.1168C7.08669 29.9762 7.00123 29.8581 6.89117 29.7808C6.79755 29.6936 6.72026 29.5842 6.66418 29.4598C6.6081 29.3353 6.57446 29.1984 6.56539 29.0578C6.50721 28.5344 6.53048 27.8665 6.47812 27.2811C7.91508 26.7509 7.64165 25.2841 7.68819 24.8434C7.71347 24.7062 7.75051 24.5724 7.79873 24.444C7.95798 24.0689 8.038 23.6536 8.03193 23.2338C8.02585 22.8141 7.93385 22.4023 7.76382 22.0338C7.59629 21.6827 7.52896 21.277 7.57184 20.877C7.60085 20.4841 7.57331 20.0882 7.49039 19.7063C7.39257 19.3606 7.26793 19.0263 7.11806 18.7078C6.75092 17.9852 6.55032 17.1613 6.5363 16.3183C6.51097 15.8542 6.45258 15.3935 6.36177 14.941C5.98944 13.3434 5.43676 13.247 5.40768 11.2569C6.05343 11.5186 6.82136 11.7527 7.4613 11.9455C7.99071 12.1039 9.20659 11.5255 10.3701 11.6838C11.1996 11.8174 12.0214 12.0105 12.831 12.2623C13.643 12.596 14.5264 12.596 15.3384 12.2623C15.6118 12.1865 15.8794 12.1108 16.1296 12.0695C16.851 11.9731 17.7527 12.2003 18.6428 11.9249C19.626 11.6219 20.1438 10.9677 20.8942 10.6509C21.6447 10.3341 22.4883 10.3548 23.2213 9.99672C23.2213 10.3204 22.7035 10.5545 22.5581 11.3051C22.5111 11.6214 22.5352 11.9467 22.6279 12.2485C22.721 12.6686 22.721 12.6066 22.5523 12.8889C21.7611 14.1835 22.401 15.244 22.3719 16.1323C22.3719 16.821 21.9938 17.5096 22.017 18.3704C22.0454 18.8438 22.1377 19.3088 22.2905 19.7476C22.4072 20.036 22.4736 20.3493 22.4856 20.6688C22.4976 20.9883 22.455 21.3074 22.3603 21.6069C22.1583 22.3118 22.1768 23.0791 22.4126 23.7692C22.5872 24.3958 22.5988 24.4578 22.2439 25.0569C21.9695 25.483 21.7931 25.9859 21.732 26.5168C21.7014 26.716 21.6567 26.9118 21.5982 27.1021C20.8259 27.2087 20.0474 27.2363 19.2711 27.1847C18.6893 27.1847 18.3403 27.7701 18.1716 27.8734C18.0029 27.9767 17.456 27.7288 17.008 28.0593C16.696 28.3485 16.4549 28.7313 16.3099 29.168C16.0772 29.4021 15.7282 29.168 15.2628 29.7877C14.501 30.8637 14.0523 32.2013 13.9829 33.6027C13.973 34.7268 14.3102 35.8165 14.9311 36.6671C15.355 37.2003 15.6081 37.8921 15.6467 38.6228C15.6874 39.0566 15.7805 40 16.5485 40C17.904 40 18.3345 37.5692 18.4625 35.5308C18.4847 35.1102 18.471 34.688 18.4217 34.2707C19.2944 34.5323 20.5452 33.582 21.4818 33.3755C21.6971 33.3755 22.3196 33.8231 22.9362 33.6234C23.5529 33.4237 23.8787 32.6317 24.0997 32.5216C24.3208 32.4114 25.0655 32.7764 25.624 32.3838C26.3454 31.8743 26.3744 30.7862 26.6071 30.318C26.8399 29.8497 27.5845 29.4503 27.7707 28.5138C27.9568 27.5773 27.4274 26.868 27.4449 26.3653C27.4829 26.1433 27.5496 25.9296 27.6427 25.7317C28.1197 24.5542 28.0732 24.0791 27.5438 23.0461C27.2064 22.3575 27.2064 22.3575 27.4333 21.6207C27.6061 21.2081 27.6801 20.7473 27.6473 20.2884C27.6145 19.8295 27.4761 19.39 27.2471 19.0177C26.9329 18.3291 26.9155 18.2946 27.2064 17.5096C27.3996 17.1177 27.5014 16.6721 27.5014 16.2184C27.5014 15.7647 27.3996 15.3191 27.2064 14.9273C27.1146 14.7116 27.0556 14.4785 27.0318 14.2386C27.0726 13.7153 27.666 13.1782 27.8405 12.4689C28.015 11.7596 27.6892 11.0434 27.7939 10.7473C27.8884 10.6171 27.9981 10.5035 28.1197 10.4099C28.4452 10.2016 28.7016 9.8692 28.8473 9.46668C28.9931 9.06415 29.0196 8.61514 28.9226 8.19253C28.8411 7.57966 28.8295 7.57966 29.2367 7.1596ZM28.4862 6.11289C28.1864 6.33354 27.9533 6.66103 27.8206 7.0483C27.6878 7.43557 27.6622 7.86269 27.7474 8.26828C27.8114 8.88115 27.8172 8.84672 27.4042 9.21858C27.103 9.44169 26.8595 9.75853 26.7002 10.1344C26.4326 10.9057 26.7526 11.7252 26.7002 11.9868C26.613 12.4 25.9323 13.0886 25.8509 14.0458C25.781 14.8928 26.3104 15.6572 26.3046 16.1943C26.3046 16.6006 25.7636 17.4338 25.7927 18.3015C25.8374 18.7722 25.9728 19.2245 26.1883 19.6237C26.3365 19.8266 26.4265 20.0799 26.4453 20.3472C26.4641 20.6145 26.4108 20.882 26.293 21.1111C26.1325 21.5442 26.0608 22.0161 26.0836 22.4883C26.1534 23.2389 26.7468 24.0102 26.7642 24.3476C26.7817 24.685 26.2697 25.5045 26.2406 26.2551C26.249 26.6802 26.3219 27.1001 26.4559 27.4946C26.538 27.712 26.5853 27.9455 26.5955 28.1832C26.5199 28.562 25.8974 28.9476 25.5774 29.5605C25.2575 30.1734 25.1993 30.9997 25.0248 31.1305C24.5721 31.0568 24.1123 31.0708 23.6634 31.1719C23.3769 31.3399 23.1293 31.5881 22.942 31.8949C22.8573 32.0233 22.7596 32.1389 22.6512 32.2392C22.5097 32.2222 22.3708 32.1828 22.2381 32.1222C21.4585 31.8192 21.3887 31.8674 19.9983 32.4596C18.8348 32.9623 18.8348 32.9623 18.5846 32.7832C17.6538 32.0189 16.8859 32.6386 17.0895 33.3548C17.2605 34.0076 17.3391 34.6893 17.3222 35.3725C17.2999 36.3643 17.1224 37.3426 16.7986 38.2578C16.5194 35.7719 15.1639 35.7856 15.1639 33.582C15.2429 32.5026 15.5935 31.476 16.1703 30.6347H16.2401C16.5528 30.5799 16.846 30.4215 17.0859 30.1778C17.3257 29.9341 17.5025 29.615 17.5956 29.2575C17.6847 29.25 17.7741 29.25 17.8632 29.2575C18.1037 29.288 18.3468 29.2623 18.5788 29.1817C18.859 29.0294 19.118 28.8274 19.3467 28.5826C20.0681 28.5826 21.7378 28.7961 22.3137 28.2246C22.8897 27.653 22.8315 26.8473 22.9944 26.2964C23.1282 25.897 23.6227 25.3805 23.6983 24.568C23.774 23.7554 23.4133 23.1907 23.4016 22.7431C23.39 22.2955 23.6983 21.4072 23.6518 20.512C23.6111 19.8234 23.2155 18.9075 23.198 18.3635C23.1806 17.8195 23.5296 17.0276 23.5529 16.2219C23.5529 15.5332 23.2911 14.5692 23.3435 14.0665C23.3435 13.8737 23.7681 13.488 23.8496 12.9303C23.8769 12.5005 23.8274 12.0687 23.7041 11.6632C23.7681 11.3395 24.6873 10.8231 24.3208 9.43894L24.3557 9.3081C24.6565 8.93833 25.0015 8.62279 25.3796 8.37157C25.5151 8.28542 25.6163 8.13925 25.661 7.96503C25.7057 7.79082 25.6903 7.60274 25.6182 7.44193C25.5821 7.36161 25.533 7.29054 25.4736 7.23281C25.4143 7.17508 25.3458 7.13184 25.2723 7.10559C25.1987 7.07934 25.1215 7.0706 25.045 7.07987C24.9686 7.08914 24.8945 7.11624 24.827 7.1596C24.4656 7.37645 24.1356 7.66004 23.8496 7.99972C22.8141 9.18415 21.7611 8.8605 20.5103 9.37696C19.7365 9.7075 19.0384 10.4099 18.3577 10.6165C17.6771 10.8231 16.8044 10.6165 16.0307 10.7335C15.2569 10.8506 14.4832 11.2294 13.8723 11.1536C13.4884 11.1054 12.0863 10.5683 10.5388 10.3548C9.62408 10.3038 8.70777 10.4035 7.81618 10.6509C3.74383 9.37696 5.20406 9.40451 3.6333 8.33714C3.56708 8.28732 3.49304 8.25386 3.41561 8.23879C3.33819 8.22372 3.259 8.22734 3.18279 8.24943C3.10658 8.27153 3.03493 8.31164 2.97216 8.36736C2.90939 8.42308 2.85679 8.49326 2.81752 8.57366C2.77826 8.65407 2.75314 8.74305 2.74368 8.83525C2.73422 8.92744 2.74061 9.02095 2.76247 9.11015C2.78433 9.19934 2.82121 9.28238 2.87088 9.35427C2.92056 9.42616 2.98201 9.48541 3.05153 9.52846C3.72638 9.98984 3.6333 10.2171 4.21506 10.6165C4.45358 11.7596 4.03471 12.0901 4.89572 14.1973C5.90799 16.6626 4.89572 16.4767 6.14652 19.362C6.40941 19.7916 6.52575 20.3227 6.4723 20.8494C6.42171 21.4603 6.52281 22.0753 6.76319 22.6192C6.84201 22.8011 6.89694 22.9961 6.92608 23.1976C6.95517 23.7623 6.57702 24.1204 6.5712 25.2222C6.5712 25.8213 6.5712 26.0003 5.79164 26.1036C5.14588 26.1725 4.69211 26.7922 4.46522 26.7922C4.33657 26.3594 4.1391 25.9596 3.88346 25.6147C3.56368 25.3733 3.20847 25.2051 2.83628 25.1189C2.91946 24.6401 2.90751 24.1451 2.80137 23.6728C2.60358 23.0943 2.03345 22.8189 1.94618 22.6261C1.95754 22.3906 1.99873 22.1584 2.06835 21.9374C2.22588 21.5316 2.2961 21.0859 2.27276 20.6401C2.24941 20.1944 2.13322 19.7624 1.93455 19.3826C1.54477 18.5976 1.5564 18.5976 1.84728 17.8401C2.07594 17.4318 2.19788 16.9528 2.19788 16.4629C2.19788 15.973 2.07594 15.494 1.84728 15.0856C1.57385 14.397 1.56222 14.3626 1.79492 13.5431C2.08581 12.5309 2.13235 12.1315 1.48077 10.7886C1.09681 10.0036 1.027 9.87277 1.50986 8.81229C1.77248 8.28671 1.93342 7.69875 1.98109 7.09074C2.14398 5.87876 2.17889 5.89253 3.09807 6.03026C3.69951 6.18974 4.3268 6.14438 4.90736 5.89942C5.87891 5.54134 5.93708 5.69283 6.30941 6.0096C6.71761 6.41482 7.21324 6.67716 7.74055 6.76708C9.35204 6.91169 9.14842 6.27816 10.3643 6.17487C11.5802 6.07157 12.7321 6.82906 13.2091 6.86349C15.3966 7.13894 15.5653 7.49702 16.8684 6.82217C17.0788 6.66343 17.321 6.57344 17.5703 6.56134C17.8197 6.54925 18.0672 6.61548 18.2879 6.75331C19.3816 7.14583 19.8412 7.09762 20.5626 6.20241C20.7953 5.91319 20.7313 5.89253 21.2433 5.99583C22.1101 6.16798 22.5755 5.99583 22.9886 4.77696C23.1166 4.39134 23.0817 4.39822 23.4889 4.20541C23.7424 4.11213 23.9768 3.95744 24.1771 3.75116C24.3774 3.54488 24.5393 3.29153 24.6524 3.00721C24.9608 2.40122 24.984 2.38056 25.5949 2.31858C26.4675 2.18774 26.4675 1.99493 27.0784 1.45092C27.3518 1.74014 27.6194 2.32547 27.9452 2.61469C28.271 2.90391 28.655 2.99343 28.7015 3.10361C28.8702 3.44792 28.7539 3.93685 28.812 4.79074C28.8935 5.84433 28.7597 5.81678 28.4862 6.11289Z" fill="#F7F5E5"/>
</svg>
