<svg width="14" height="12" viewBox="0 0 14 12" fill="none" xmlns="http://www.w3.org/2000/svg">
<path d="M0 0.857143C0 0.629814 0.0819442 0.411797 0.227806 0.251051C0.373667 0.090306 0.571498 0 0.777778 0H13.2222C13.4285 0 13.6263 0.090306 13.7722 0.251051C13.9181 0.411797 14 0.629814 14 0.857143C14 1.08447 13.9181 1.30249 13.7722 1.46323C13.6263 1.62398 13.4285 1.71429 13.2222 1.71429H0.777778C0.571498 1.71429 0.373667 1.62398 0.227806 1.46323C0.0819442 1.30249 0 1.08447 0 0.857143ZM0 6C0 5.77267 0.0819442 5.55465 0.227806 5.39391C0.373667 5.23316 0.571498 5.14286 0.777778 5.14286H13.2222C13.4285 5.14286 13.6263 5.23316 13.7722 5.39391C13.9181 5.55465 14 5.77267 14 6C14 6.22733 13.9181 6.44535 13.7722 6.60609C13.6263 6.76684 13.4285 6.85714 13.2222 6.85714H0.777778C0.571498 6.85714 0.373667 6.76684 0.227806 6.60609C0.0819442 6.44535 0 6.22733 0 6ZM0.777778 10.2857C0.571498 10.2857 0.373667 10.376 0.227806 10.5368C0.0819442 10.6975 0 10.9155 0 11.1429C0 11.3702 0.0819442 11.5882 0.227806 11.7489C0.373667 11.9097 0.571498 12 0.777778 12H13.2222C13.4285 12 13.6263 11.9097 13.7722 11.7489C13.9181 11.5882 14 11.3702 14 11.1429C14 10.9155 13.9181 10.6975 13.7722 10.5368C13.6263 10.376 13.4285 10.2857 13.2222 10.2857H0.777778Z" fill="#F7F5E5"/>
</svg>
