<svg width="40" height="41" viewBox="0 0 40 41" fill="none" xmlns="http://www.w3.org/2000/svg">
<mask id="mask0_25_1705" style="mask-type:alpha" maskUnits="userSpaceOnUse" x="0" y="0" width="40" height="41">
<rect y="0.788696" width="40" height="39.4366" fill="#D9D9D9"/>
</mask>
<g mask="url(#mask0_25_1705)">
<path d="M13.3333 30.3663H26.6666V27.0799H13.3333V30.3663ZM13.3333 23.7935H26.6666V20.5071H13.3333V23.7935ZM9.99996 36.939C9.08329 36.939 8.29857 36.6173 7.64579 35.9737C6.99301 35.3301 6.66663 34.5564 6.66663 33.6527V7.36158C6.66663 6.45782 6.99301 5.68415 7.64579 5.04057C8.29857 4.39699 9.08329 4.0752 9.99996 4.0752H23.3333L33.3333 13.9344V33.6527C33.3333 34.5564 33.0069 35.3301 32.3541 35.9737C31.7013 36.6173 30.9166 36.939 30 36.939H9.99996ZM21.6666 15.5775V7.36158H9.99996V33.6527H30V15.5775H21.6666Z" fill="#322100"/>
</g>
</svg>
