<svg width="33" height="30" viewBox="0 0 33 30" fill="none" xmlns="http://www.w3.org/2000/svg">
<path d="M32.9991 17.4046C32.9991 10.1758 26.0745 6.64816 25.7786 6.49664L25.2447 6.23062L24.7107 6.49664C24.4161 6.64353 17.4926 10.1758 17.4926 17.4046C17.4926 21.0548 19.7898 24.9063 24.066 25.5112V27.6868H6.36711V15.4626H4.00977V30H26.4233V25.5112C30.6996 24.9063 32.9991 21.0548 32.9991 17.4046ZM26.4233 23.1633V13.9024H24.066V23.1633C22.8024 22.8141 21.6971 22.0541 20.9311 21.0079C20.1651 19.9616 19.7839 18.6912 19.8499 17.4046C19.8499 12.6625 23.7878 9.77099 25.2447 8.86768C26.705 9.77561 30.6418 12.6625 30.6418 17.4046C30.7074 18.6914 30.3258 19.962 29.5594 21.0083C28.793 22.0545 27.6873 22.8143 26.4233 23.1633Z" fill="#F7F5E5"/>
<path d="M19.8311 7.30974L21.4282 5.60722L15.2213 0L6.37071 7.99445V4.75827H4.01337V10.1238L0 13.7474L1.59592 15.4499L15.2213 3.14481L19.8311 7.30974Z" fill="#F7F5E5"/>
</svg>
