<svg width="20" height="20" viewBox="0 0 20 20" fill="none" xmlns="http://www.w3.org/2000/svg">
<path d="M18.9 0H1.1C0.808262 0 0.528473 0.115893 0.322183 0.322183C0.115893 0.528473 0 0.808262 0 1.1V18.9C0 19.0445 0.0284524 19.1875 0.0837326 19.321C0.139013 19.4544 0.220038 19.5757 0.322183 19.6778C0.424327 19.78 0.54559 19.861 0.679048 19.9163C0.812506 19.9715 0.955546 20 1.1 20H7.68C9.33685 20 10.68 18.6569 10.68 17V13.55C10.68 12.832 10.098 12.25 9.38 12.25C8.66203 12.25 8.08 11.668 8.08 10.95V10.55C8.08 9.83203 8.66203 9.25 9.38 9.25C10.098 9.25 10.68 8.66797 10.68 7.95V7C10.6261 6.47176 10.6885 5.93813 10.8627 5.43654C11.0369 4.93495 11.3188 4.47755 11.6885 4.09641C12.0582 3.71528 12.5068 3.41964 13.0028 3.23024C13.4989 3.04083 14.0304 2.96225 14.56 3C14.9128 2.99783 15.2655 3.00487 15.6177 3.02111C16.3433 3.05456 16.89 3.67 16.89 4.39631C16.89 5.18259 16.2526 5.82 15.4663 5.82H15.3C14.04 5.82 13.8 6.42 13.8 7.29V7.81709C13.8 8.5919 14.4281 9.22 15.2029 9.22C16.0495 9.22 16.7033 9.96421 16.5941 10.8038L16.5673 11.0097C16.4773 11.702 15.8876 12.22 15.1895 12.22C14.4221 12.22 13.8 12.8421 13.8 13.6095V17C13.8 18.6569 15.1431 20 16.8 20H18.9C19.0445 20 19.1875 19.9715 19.321 19.9163C19.4544 19.861 19.5757 19.78 19.6778 19.6778C19.78 19.5757 19.861 19.4544 19.9163 19.321C19.9715 19.1875 20 19.0445 20 18.9V1.1C20 0.955546 19.9715 0.812506 19.9163 0.679048C19.861 0.54559 19.78 0.424327 19.6778 0.322183C19.5757 0.220038 19.4544 0.139013 19.321 0.0837326C19.1875 0.0284524 19.0445 0 18.9 0Z" fill="#F3A31A"/>
</svg>
