<svg width="27" height="21" viewBox="0 0 27 21" fill="none" xmlns="http://www.w3.org/2000/svg">
<path d="M14.0801 13.6068L1.3901 5.53106C0.734048 5.0972 0.274624 4.42304 0.11076 3.65376C-0.0531036 2.88448 0.0917016 2.08161 0.513993 1.41805C0.936285 0.754495 1.60228 0.283319 2.36857 0.105991C3.13486 -0.0713372 3.94014 0.0593666 4.611 0.469958L13.921 6.39426L22.2801 0.542758C22.9323 0.100816 23.7321 -0.0668532 24.5069 0.0759651C25.2816 0.218783 25.9691 0.660626 26.4209 1.30606C26.8726 1.9515 27.0523 2.74872 26.9212 3.52554C26.7901 4.30237 26.3586 4.99644 25.7201 5.45786L14.0801 13.6068Z" fill="#EA4435"/>
<path d="M25 21H21V3C21 2.20435 21.3161 1.44129 21.8787 0.878679C22.4413 0.316071 23.2044 0 24 0C24.7956 0 25.5587 0.316071 26.1213 0.878679C26.6839 1.44129 27 2.20435 27 3L27 19C27 19.5304 26.7893 20.0391 26.4142 20.4142C26.0391 20.7893 25.5304 21 25 21Z" fill="#00AC47"/>
<path d="M26.9566 2.56557C26.9478 2.50557 26.9485 2.44427 26.936 2.38437C26.9168 2.29257 26.8811 2.20777 26.8537 2.11917C26.8272 2.01776 26.7952 1.91785 26.7579 1.81987C26.7379 1.77237 26.7071 1.73067 26.6844 1.68447C26.6222 1.55117 26.5502 1.42265 26.469 1.29997C26.429 1.24187 26.379 1.19237 26.3348 1.13737C26.259 1.03741 26.177 0.94226 26.0893 0.852471C26.0228 0.787771 25.947 0.733671 25.8747 0.675371C25.7979 0.609489 25.7178 0.54751 25.6347 0.489671C25.5554 0.437871 25.4686 0.397971 25.3847 0.353771C25.2963 0.307671 25.2097 0.257471 25.1177 0.220671C25.0288 0.184871 24.934 0.162071 24.8411 0.134771C24.7482 0.107471 24.6558 0.0747713 24.5604 0.0570713C24.4422 0.0380857 24.323 0.0260652 24.2034 0.0210715C24.1275 0.0157715 24.0523 0.00247141 23.9761 0.00307141C23.8346 0.00719434 23.6937 0.021397 23.5542 0.0455714C23.4979 0.0539714 23.4412 0.0532714 23.3853 0.0648714C23.1966 0.122527 23.0084 0.181862 22.8208 0.242871C22.7693 0.264871 22.7242 0.297572 22.6743 0.322372C22.1665 0.559329 21.7382 0.938294 21.4411 1.41346C21.1441 1.88863 20.991 2.43967 21.0004 2.99997V8.76197L25.7204 5.45767C26.1839 5.1466 26.5473 4.70786 26.7667 4.19454C26.986 3.68123 27.0522 3.11554 26.9566 2.56557Z" fill="#FFBA00"/>
<path d="M3 0C3.79565 0 4.55871 0.316071 5.12132 0.87868C5.68393 1.44129 6 2.20435 6 3V21H2C1.46957 21 0.960859 20.7893 0.585786 20.4142C0.210714 20.0391 0 19.5304 0 19V3C0 2.20435 0.316071 1.44129 0.87868 0.87868C1.44129 0.316071 2.20435 0 3 0Z" fill="#4285F4"/>
<path d="M0.0444533 2.56566C0.0532533 2.50566 0.0525534 2.44436 0.0650534 2.38446C0.0842534 2.29266 0.119953 2.20786 0.147353 2.11926C0.173915 2.01789 0.205894 1.91801 0.243153 1.82006C0.263153 1.77256 0.293953 1.73086 0.316753 1.68466C0.378933 1.55131 0.450931 1.42275 0.532153 1.30006C0.572153 1.24196 0.622153 1.19246 0.666353 1.13746C0.742171 1.0375 0.824129 0.942351 0.911753 0.852561C0.978253 0.787861 1.05405 0.733761 1.12645 0.675461C1.20327 0.609553 1.28337 0.547573 1.36645 0.489761C1.44575 0.437961 1.53255 0.398061 1.61645 0.353861C1.70316 0.304819 1.79227 0.260162 1.88345 0.220061C1.97245 0.184261 2.06725 0.161461 2.16005 0.134161C2.25285 0.106861 2.34535 0.074161 2.44075 0.056461C2.55895 0.0374804 2.67815 0.0254599 2.79775 0.0204612C2.87375 0.0151612 2.94885 0.00186106 3.02505 0.00246106C3.16652 0.00657891 3.30751 0.0207816 3.44695 0.0449611C3.50325 0.0533611 3.55995 0.0526611 3.61595 0.0642611C3.71275 0.0889253 3.80821 0.118565 3.90195 0.153061C3.99622 0.178117 4.08917 0.207888 4.18045 0.242261C4.23185 0.264261 4.27695 0.296961 4.32695 0.321761C4.45658 0.382661 4.58164 0.452844 4.70115 0.531761C5.10179 0.80685 5.42945 1.17532 5.65583 1.60536C5.88222 2.0354 6.00053 2.51407 6.00055 3.00006V8.76206L1.28055 5.45796C0.81713 5.1468 0.45377 4.70805 0.234404 4.19477C0.0150389 3.68149 -0.050937 3.11565 0.0444533 2.56566Z" fill="#C52528"/>
</svg>
