<svg width="86" height="85" viewBox="0 0 86 85" fill="none" xmlns="http://www.w3.org/2000/svg">
<circle cx="43.0001" cy="42.2222" r="41.7222" fill="#E2E2BE" fill-opacity="0.54" stroke="#E2E2BE"/>
<g clip-path="url(#clip0_2_249)">
<path d="M45.481 66.9652H56.417C57.2954 66.039 58.2588 65.0756 59.2371 64.0965C61.2885 62.0375 63.4298 59.8886 65.6309 57.1997C68.1466 54.1245 68.4161 53.0607 69.1798 50.049C69.3245 49.4826 69.4842 48.8475 69.6939 48.0588L71.0016 43.184L71.0166 43.1311C71.7154 40.961 71.7703 39.5266 71.4808 38.7009C71.3909 38.4468 71.2761 38.2775 71.1414 38.1875C71.0365 38.1134 70.8968 38.0869 70.752 38.1028C70.4126 38.1399 70.0283 38.3675 69.6789 38.775L65.7957 48.5828C65.7607 48.6728 65.7108 48.7575 65.6559 48.8316C65.4263 49.2709 65.1168 49.6996 64.7175 50.1072L57.8295 58.253C57.4552 58.6977 56.8113 58.7347 56.397 58.3377C55.9777 57.9408 55.9428 57.258 56.3171 56.8187L63.2102 48.6728C63.2401 48.6358 63.2701 48.5987 63.305 48.567C64.0187 47.8471 64.2434 47.0691 64.1186 46.5027C64.0786 46.328 64.0088 46.1798 63.9089 46.0793C63.8141 45.9893 63.6893 45.9258 63.5346 45.9099C62.9207 45.8411 62.0172 46.3227 60.9142 47.7042C60.8842 47.7413 60.8493 47.7783 60.8143 47.8154L58.144 50.3136L58.129 50.3295C55.239 53.23 53.9962 53.9181 51.7301 55.1726C51.2559 55.4372 50.7368 55.723 50.093 56.0935C49.8384 56.2417 49.5888 56.4217 49.3443 56.6175C49.0847 56.8292 48.8352 57.0462 48.6006 57.258C47.4026 58.3271 46.7737 59.1952 46.4144 60.1532C46.04 61.1483 45.9053 62.3604 45.7206 64.0224C45.6457 64.6946 45.5908 65.3562 45.5459 66.0178C45.5109 66.3407 45.496 66.6582 45.481 66.9652ZM49.7785 20.472C54.8796 14.6339 55.7382 19.9374 59.4916 21.0542C59.9458 21.1866 60.2852 21.2183 60.2503 21.4459C59.9209 23.7325 59.2171 24.1665 58.4335 24.1877C57.565 24.2141 56.8612 24.1982 56.3371 24.4576C55.6733 24.7911 55.1941 25.2251 54.8397 25.7332L49.509 22.8485C49.6837 22.1816 49.7735 21.393 49.7785 20.472ZM54.2857 26.8341C53.1526 30.0417 54.665 34.8159 49.5839 36.5731C49.2794 39.3043 49.2894 42.0408 49.6537 44.7719L50.2727 44.7031C51.3857 44.5761 51.3757 45.6453 50.8467 46.3386H47.5624C47.3228 43.0623 46.7288 39.479 46.9784 36.3508C45.2464 36.8431 44.2082 36.7108 42.3265 35.9539C41.4131 35.5834 37.6546 33.2015 36.6314 34.1701C36.0574 34.7206 37.5897 36.9066 33.8013 40.7916L33.8712 44.6343H34.5101C35.4784 44.6343 35.4285 45.6611 35.0741 46.3333H33.2023C31.9595 46.3333 32.2191 46.4762 32.2041 45.0842L32.1741 42.0937L31.9745 40.2412C31.9795 39.1349 32.7232 37.9599 32.0094 35.3346C31.5402 33.5932 31.5752 32.2118 30.3423 32.0159C29.1993 34.4666 28.1012 36.7055 27.1379 39.2725C27.073 39.4472 26.9832 39.6113 26.9033 39.7807C25.8052 42.4589 25.346 40.4476 25.9599 38.8544L26.3692 37.7958C26.8933 35.5516 28.3757 31.3384 29.7733 29.777C35.0441 23.8807 45.7256 29.4594 48.8701 24.357L54.2857 26.8341ZM48.9 24.3359L48.94 24.267C48.93 24.2882 48.915 24.3094 48.9 24.3359ZM49.3293 23.4255C49.3093 23.489 49.2844 23.5578 49.2644 23.6213L49.3293 23.4255ZM40.5196 66.9652H29.5786C28.7002 66.039 27.7368 65.0756 26.7585 64.0965C24.7071 62.0375 22.5658 59.8886 20.3647 57.1997C17.849 54.1245 17.5795 53.0607 16.8158 50.049C16.6761 49.4826 16.5164 48.8475 16.3067 48.0588L14.999 43.184L14.984 43.1311C14.2852 40.961 14.2303 39.5266 14.5198 38.7009C14.6097 38.4468 14.7245 38.2775 14.8592 38.1875C14.9641 38.1134 15.1038 38.0869 15.2486 38.1028C15.593 38.1399 15.9773 38.3675 16.3267 38.775L20.2099 48.5828C20.2449 48.6728 20.2948 48.7575 20.3497 48.8316C20.5793 49.2709 20.8888 49.6996 21.2881 50.1072L28.1761 58.253C28.5504 58.6977 29.1943 58.7347 29.6086 58.3377C30.0279 57.9408 30.0628 57.258 29.6885 56.8187L22.7954 48.6675C22.7655 48.6305 22.7355 48.5934 22.7006 48.5617C21.9868 47.8418 21.7622 47.0638 21.887 46.4974C21.9269 46.3227 21.9968 46.1745 22.0967 46.074C22.1915 45.984 22.3163 45.9205 22.471 45.9046C23.0849 45.8358 23.9934 46.3175 25.0914 47.6989C25.1214 47.736 25.1563 47.773 25.1913 47.8101L27.8616 50.3083L27.8766 50.3242C30.7666 53.2247 32.0094 53.9128 34.2755 55.1673C34.7496 55.4319 35.2687 55.7177 35.9126 56.0882C36.1672 56.2364 36.4167 56.4164 36.6613 56.6122C36.9209 56.8239 37.1704 57.041 37.405 57.2527C38.6029 58.3218 39.2319 59.1899 39.5912 60.1479C39.9656 61.143 40.1003 62.3551 40.285 64.0171C40.3599 64.6893 40.4148 65.3509 40.4597 66.0125C40.4897 66.3407 40.5046 66.6582 40.5196 66.9652ZM27.0331 67.3357C26.8783 67.5263 26.7835 67.775 26.7835 68.045V74.4706C26.7835 75.0687 27.2427 75.5504 27.8017 75.5504H41.5678C42.1318 75.5504 42.586 75.0634 42.586 74.4706V67.9868C42.586 67.2987 42.5461 66.5577 42.5012 65.8696C42.4562 65.1656 42.3964 64.467 42.3215 63.7736C42.1218 61.9581 41.9721 60.6296 41.4929 59.354C40.9988 58.0466 40.2052 56.9192 38.7327 55.6013C38.4632 55.3578 38.1887 55.1143 37.8992 54.8867C37.5947 54.6433 37.2653 54.4104 36.8959 54.1934C36.297 53.8493 35.7379 53.537 35.2288 53.2512C33.1325 52.0868 31.9845 51.4516 29.2842 48.7416C29.2642 48.7204 29.2392 48.6993 29.2193 48.6834L26.6088 46.2539C25.0166 44.2797 23.4593 43.6233 22.2664 43.761H22.2614C21.6774 43.8245 21.1783 44.068 20.7789 44.4385L18.1485 37.7905H18.1435C18.1036 37.6952 18.0537 37.6053 17.9888 37.5206C17.2601 36.5943 16.3367 36.0544 15.4532 35.9592C14.8493 35.8956 14.2653 36.0333 13.7562 36.3826C13.272 36.7161 12.8727 37.2348 12.6231 37.9493C12.1839 39.1932 12.1939 41.1251 13.0524 43.798L14.3501 48.6411C14.5398 49.3397 14.7045 50.0119 14.8592 50.6047C15.7078 53.9658 16.0072 55.1567 18.8373 58.6077C21.0784 61.3441 23.2696 63.546 25.376 65.6579C25.925 66.2189 26.474 66.7694 27.0331 67.3357ZM28.9797 69.13C29.1144 69.1618 29.2542 69.1618 29.394 69.13H40.5446V73.3962H28.82V69.13H28.9797ZM58.9675 67.3357C59.1223 67.5263 59.2171 67.775 59.2171 68.045V74.4706C59.2171 75.0687 58.7629 75.5504 58.1989 75.5504H44.4378C43.8738 75.5504 43.4196 75.0634 43.4196 74.4706V67.9868C43.4196 67.9497 43.4196 67.9074 43.4246 67.8703C43.4395 67.1769 43.4645 66.5047 43.5044 65.8696C43.5493 65.1656 43.6092 64.467 43.6841 63.7736C43.8838 61.9581 44.0335 60.6296 44.5127 59.354C45.0068 58.0466 45.8004 56.9192 47.2729 55.6013C47.5424 55.3578 47.8169 55.1143 48.1064 54.8867C48.4109 54.6433 48.7403 54.4104 49.1097 54.1934C49.7086 53.8493 50.2677 53.537 50.7768 53.2512C52.8731 52.0868 54.0211 51.4516 56.7214 48.7416C56.7414 48.7204 56.7664 48.6993 56.7863 48.6834L59.3918 46.2434C60.984 44.2691 62.5413 43.6128 63.7342 43.7504H63.7392C64.3232 43.8139 64.8223 44.0574 65.2217 44.4279L67.8521 37.7799H67.8571C67.897 37.6847 67.9469 37.5947 68.0118 37.51C68.7405 36.5837 69.6639 36.0439 70.5474 35.9486C71.1513 35.8851 71.7353 36.0227 72.2444 36.372C72.7286 36.7055 73.1279 37.2242 73.3775 37.9387C73.8167 39.1826 73.8067 41.1145 72.9482 43.7874L71.6505 48.6305C71.4608 49.3291 71.2961 50.0013 71.1414 50.5942C70.2928 53.9552 69.9934 55.1461 67.1633 58.5971C64.9222 61.3335 62.731 63.5354 60.6247 65.6473C60.0756 66.2189 59.5266 66.7694 58.9675 67.3357ZM57.0209 69.13C56.8862 69.1618 56.7464 69.1618 56.6066 69.13H45.456V73.3962H57.1806V69.13H57.0209Z" fill="black"/>
</g>
<defs>
<clipPath id="clip0_2_249">
<rect width="61.3333" height="57.7778" fill="white" transform="translate(12.3335 17.7778)"/>
</clipPath>
</defs>
</svg>
