<svg width="30" height="40" viewBox="0 0 30 40" fill="none" xmlns="http://www.w3.org/2000/svg">
<path d="M21.2714 17.5639C19.784 19.679 17.3111 21.9125 14.299 21.4979C11.3241 21.0918 9.21379 18.5538 7.94946 16.278C7.76353 15.948 7.32659 15.9142 6.99191 16.0496C6.73161 16.1595 6.42482 15.9396 6.23889 15.7788C5.85773 15.4574 5.64391 15.0005 5.49516 14.5606C5.31853 14.0276 5.10471 12.5978 5.9321 12.3694C6.33185 12.2594 6.4713 11.9379 6.41552 11.5911C6.41552 11.5911 6.41552 11.5911 6.41552 11.5826C6.35975 11.2357 5.88562 11.0581 5.56024 11.1427C5.16049 11.2442 5.02104 11.5826 5.07682 11.921C5.07682 11.921 5.07682 11.921 5.07682 11.9295C5.23486 11.6672 5.4022 11.4049 5.56024 11.1511C3.81249 11.6418 3.75671 13.7146 4.19365 15.0343C4.63988 16.3626 6.03436 17.86 7.69845 17.1494C7.38237 17.0732 7.06628 16.9971 6.7409 16.921C8.20046 19.5521 10.6826 22.2847 14.0666 22.7415C17.683 23.2322 20.6579 20.7873 22.4707 18.1984C22.9634 17.5132 21.7548 16.8787 21.2714 17.5639ZM11.8819 28.5875C13.8807 29.2812 16.0932 29.2389 18.1199 28.6637C18.9752 28.4268 18.6126 27.2 17.748 27.4369C15.9352 27.9445 14.0387 27.9784 12.2538 27.3608C11.4171 27.0731 11.0545 28.2999 11.8819 28.5875Z" fill="#DCD6D6"/>
<path d="M30 39.3656C30 37.3098 30 35.2455 30 33.1897C30 32.3437 30 31.4977 30 30.6517C30 28.8412 28.9774 27.1915 27.3133 26.2186C26.2907 25.6179 25.0728 25.4825 23.9108 25.271C22.9067 25.0849 21.912 24.9072 20.908 24.7211C21.0474 24.8142 21.1869 24.9157 21.3263 25.0088C21.0288 24.6111 20.7592 24.1712 20.406 23.8074C19.8946 23.2829 18.7883 23.2152 18.528 23.9851C18.3049 24.6534 18.0911 25.3302 17.868 25.9986C17.0406 28.5282 16.2132 31.0578 15.3858 33.5874C15.0325 34.6618 14.6793 35.7362 14.326 36.8191C14.7722 36.8191 15.2185 36.8191 15.674 36.8191C14.3725 32.8175 13.071 28.8243 11.7694 24.8226C11.6672 24.5181 11.5742 24.2135 11.472 23.9005C11.3139 23.4013 10.7096 23.3675 10.2355 23.4352C9.89154 23.4859 9.64053 23.7651 9.44531 24.002C9.185 24.3319 8.93399 24.6704 8.67369 25.0003C8.81314 24.9072 8.95259 24.8057 9.09204 24.7127C7.97645 24.9157 6.87016 25.1187 5.75457 25.3218C5.34552 25.3979 4.92718 25.4741 4.51813 25.5502C3.47691 25.7363 2.52866 26.2186 1.75705 26.87C0.539201 27.8937 0 29.3573 0 30.8378C0 31.8615 0 32.8767 0 33.9004C0 35.7193 0 37.5383 0 39.3572C0 40.1778 1.39448 40.1778 1.39448 39.3572C1.39448 37.3014 1.39448 35.2371 1.39448 33.1813C1.39448 32.3353 1.39448 31.4892 1.39448 30.6432C1.39448 28.985 2.52866 27.4791 4.25782 26.9208C4.75054 26.76 5.29904 26.6923 5.81965 26.5993C6.59126 26.4554 7.37217 26.3201 8.14379 26.1763C8.58073 26.1001 9.02696 26.0155 9.4639 25.9394C9.80787 25.8802 10.0589 25.4148 10.2448 25.178C10.3564 25.0341 10.4679 24.8819 10.5795 24.738C10.6074 24.6957 10.6446 24.6534 10.6725 24.6196C10.7654 24.5012 10.5609 24.6788 10.6074 24.6873C10.4493 24.5435 10.282 24.3912 10.124 24.2473C11.4255 28.249 12.727 32.2422 14.0285 36.2438C14.1308 36.5484 14.2237 36.853 14.326 37.166C14.5212 37.7751 15.4695 37.7667 15.674 37.166C16.9848 33.1644 18.2956 29.1712 19.5971 25.1695C19.6994 24.8649 19.8017 24.5604 19.8946 24.2473C19.7366 24.3912 19.5693 24.5435 19.4112 24.6873C19.3926 24.6957 19.2439 24.4927 19.4019 24.6957C19.4856 24.8142 19.5786 24.9326 19.6622 25.0426C19.811 25.2456 19.969 25.4487 20.1178 25.6433C20.3967 26.0155 21.0195 26.024 21.4658 26.1001C22.665 26.3201 23.8736 26.54 25.0728 26.76C26.9507 27.0984 28.4103 28.4943 28.5869 30.2456C28.6613 30.9901 28.6055 31.76 28.6055 32.5045C28.6055 34.7887 28.6055 37.0645 28.6055 39.3487C28.6055 40.1863 30 40.1863 30 39.3656Z" fill="#DCD6D6"/>
<path d="M10.2269 31.8699C10.199 32.7244 9.4832 33.3758 8.54425 33.4012C7.6053 33.4266 6.88946 32.6905 6.86157 31.8699C6.83368 31.0154 7.64248 30.364 8.54425 30.3386C9.4925 30.3217 10.2083 31.0577 10.2269 31.8699C10.2548 32.6905 11.6493 32.6905 11.6214 31.8699C11.5749 30.3217 10.2548 29.1119 8.54425 29.0696C6.84298 29.0273 5.51357 30.3809 5.46709 31.8699C5.4206 33.4181 6.90806 34.6279 8.54425 34.6702C10.2455 34.7125 11.5749 33.3589 11.6214 31.8699C11.6493 31.0493 10.2548 31.0577 10.2269 31.8699ZM21.1039 35.8293C20.4346 35.8039 20.4067 35.2709 20.4067 34.8056C20.4067 34.1711 20.4067 33.5366 20.4067 32.9021C20.4067 32.496 20.4067 32.0899 20.4067 31.6838C20.4067 30.8209 21.0109 30.0341 21.8941 29.7295C22.8424 29.408 23.8278 29.7041 24.4786 30.3725C24.9155 30.8209 24.9899 31.3961 24.9899 31.963C24.9899 33.0374 24.9899 34.1119 24.9899 35.1778C24.9899 35.5416 24.6831 35.8039 24.2926 35.8208C23.4002 35.8546 23.3909 37.1237 24.2926 37.0898C25.4268 37.0391 26.3843 36.2523 26.3843 35.1863C26.3843 34.7548 26.3843 34.3234 26.3843 33.8919C26.3843 32.6567 26.5703 31.2946 25.9753 30.1525C24.9806 28.2405 22.1079 27.7921 20.3695 29.095C19.5142 29.738 19.0401 30.677 19.0215 31.6838C19.0122 32.0899 19.0215 32.496 19.0215 32.9021C19.0215 33.6296 19.0215 34.3487 19.0215 35.0763C19.0215 36.1931 19.8768 37.0475 21.1132 37.0983C22.0057 37.1321 22.0057 35.8631 21.1039 35.8293ZM11.6214 7.4539C11.9282 7.53004 12.235 7.64002 12.5325 7.74154C12.6068 7.76693 12.6719 7.79231 12.7463 7.81769C12.9043 7.87691 12.6347 7.77539 12.8486 7.85999C13.0345 7.93613 13.2204 8.01227 13.4064 8.09687C13.8247 8.283 14.243 8.48604 14.6428 8.706C16.781 9.85658 18.5845 11.4894 19.7745 13.5452C21.2805 16.1509 21.4944 19.2051 21.0109 22.0731C20.8994 22.7076 21.6152 23.1221 22.173 22.6906C23.4187 21.7346 24.4135 20.3895 25.1479 19.0782C26.8585 16.0325 27.0723 12.5554 25.9753 9.30667C24.7017 5.55036 22.0243 1.97172 17.8501 0.575792C14.9496 -0.397126 11.4541 -0.134861 8.81385 1.34567C7.52163 2.06478 6.32237 3.2069 6.07136 4.61975C6.17363 4.49284 6.28519 4.36594 6.38745 4.23904C5.72739 4.64513 5.32764 5.33886 5.03945 5.99029C4.23065 7.85153 4.56532 10.0596 5.06734 11.9462C5.15101 12.2762 5.56935 12.4877 5.92262 12.3862C8.71159 11.6163 11.045 9.43358 12.4023 7.17471C12.8393 6.4556 11.6307 5.81263 11.1938 6.53174C10.3013 8.01227 9.08345 9.28975 7.54022 10.2288C7.0661 10.5165 6.57338 10.7703 6.05277 10.9818C6.01558 10.9987 5.9877 11.0072 5.95051 11.0241C5.78317 11.0918 6.08996 10.9733 5.94121 11.0325C5.86684 11.0579 5.80176 11.0833 5.72739 11.1087C5.67161 11.1256 5.60654 11.151 5.55076 11.1679C5.83895 11.3117 6.12714 11.464 6.40604 11.6078C5.9691 9.94119 5.69021 8.10533 6.33167 6.44714C6.40604 6.26948 6.45252 6.1595 6.60127 5.92261C6.64775 5.83801 6.70353 5.76187 6.75931 5.68573C6.7872 5.65189 6.81509 5.61805 6.83368 5.5842C6.90806 5.49114 6.73142 5.70265 6.85228 5.56729C6.92665 5.48268 7.01032 5.40654 7.09399 5.3304C7.26132 5.18658 6.99172 5.38962 7.08469 5.3304C7.41007 5.12736 7.41007 4.82279 7.52163 4.50977C7.54022 4.459 7.55881 4.39978 7.5867 4.34902C7.66108 4.17136 7.53092 4.459 7.61459 4.2898C7.67967 4.1629 7.74475 4.04446 7.82841 3.92601C8.09802 3.51147 8.45128 3.18152 8.91611 2.82619C9.86436 2.11554 11.2031 1.65023 12.486 1.42181C15.8049 0.838057 19.1609 2.02248 21.42 4.28134C23.0004 5.87185 24.1067 7.96151 24.7575 10.0089C25.2874 11.6924 25.4454 13.4775 25.1293 15.2119C24.7946 16.9885 23.9951 18.6382 22.8517 20.1018C22.5356 20.4995 22.173 20.914 21.7175 21.3455C21.5501 21.5062 21.3828 21.6585 21.1969 21.8023C21.5873 22.0054 21.9778 22.2169 22.3589 22.4199C22.9353 19.0189 22.6285 15.5164 20.7227 12.4877C19.4305 10.4319 17.4782 8.76522 15.2471 7.56388C14.2337 7.02243 13.1275 6.52328 11.984 6.2441C11.1287 6.01567 10.7568 7.23394 11.6214 7.4539Z" fill="#DCD6D6"/>
<path d="M23.4031 28.9596C23.4031 27.8682 23.4031 26.7853 23.4031 25.6939C23.4031 25.3978 23.1893 25.1694 22.8918 25.0848C22.9941 25.1356 23.0963 25.1948 23.1986 25.2456C22.5664 24.6703 21.5717 25.567 22.2131 26.1423C22.3061 26.2269 22.3991 26.2692 22.5199 26.3031C22.3526 26.1 22.176 25.897 22.0086 25.6939C22.0086 26.7853 22.0086 27.8682 22.0086 28.9596C22.0086 29.7802 23.4031 29.7802 23.4031 28.9596Z" fill="#DCD6D6"/>
<path d="M11.3847 24.0528C11.3847 22.9022 11.3847 21.7516 11.3847 20.5926C11.3847 19.772 9.99023 19.772 9.99023 20.5926C9.99023 21.7432 9.99023 22.8938 9.99023 24.0528C9.99023 24.8734 11.3847 24.8734 11.3847 24.0528Z" fill="#DCD6D6"/>
<path d="M20.0175 24.0611C20.0175 22.9105 20.0175 21.7515 20.0175 20.6009C20.0175 19.7803 18.623 19.7803 18.623 20.6009C18.623 21.7515 18.623 22.9105 18.623 24.0611C18.623 24.8733 20.0175 24.8733 20.0175 24.0611Z" fill="#DCD6D6"/>
<path d="M9.25191 29.7127C9.25191 28.2998 9.25191 26.887 9.25191 25.4741C9.25191 24.6535 7.85742 24.6535 7.85742 25.4741C7.85742 26.887 7.85742 28.2998 7.85742 29.7127C7.85742 30.5249 9.25191 30.5249 9.25191 29.7127Z" fill="#DCD6D6"/>
<path d="M9.35259 24.1627C9.08299 24.4081 9.08299 24.8141 9.35259 25.0595C9.62219 25.3048 10.0684 25.3048 10.338 25.0595C10.6076 24.8141 10.6076 24.4081 10.338 24.1627C10.0684 23.9174 9.62219 23.9174 9.35259 24.1627Z" fill="#DCD6D6"/>
<path d="M29.3014 38.731C25.4898 38.731 21.6782 38.731 17.8573 38.731C12.6048 38.731 7.35219 38.731 2.09964 38.731C1.63481 38.731 1.16068 38.731 0.695856 38.731C-0.20591 38.731 -0.20591 40 0.695856 40C4.50745 40 8.31904 40 12.1399 40C17.3925 40 22.645 40 27.8976 40C28.3624 40 28.8365 40 29.3014 40C30.2031 40 30.2031 38.731 29.3014 38.731Z" fill="#DCD6D6"/>
</svg>
