<svg width="85" height="85" viewBox="0 0 85 85" fill="none" xmlns="http://www.w3.org/2000/svg">
<circle cx="42.2222" cy="42.2222" r="41.7222" fill="#E2E2BE" fill-opacity="0.54" stroke="#E2E2BE"/>
<path d="M41.867 35.788C41.505 37.8127 40.6969 40.1611 38.9946 42.001C37.1471 43.998 36.8455 46.2302 37.5275 48.0275C37.8875 48.9759 38.5417 49.8557 39.4672 50.5447C38.911 48.76 39.8997 46.3443 41.1154 44.8891C41.3473 44.6115 41.7695 44.7933 41.8373 45.1485C42.0416 46.2184 42.603 46.7688 43.147 47.302C43.7778 47.9204 44.3852 48.5158 44.3852 49.8718C44.3852 50.5202 44.2463 51.0382 44.0224 51.445C45.0917 51.085 46.1366 50.4989 46.9025 49.5297C47.8059 48.3863 48.4802 46.4988 48.0712 43.3114C47.553 43.7996 46.8479 44.2308 45.9418 44.2308C45.2814 44.2308 44.7314 43.7244 44.6769 43.0663C44.5981 42.1143 44.1619 40.3396 43.3479 38.4861C42.93 37.5345 42.4326 36.6084 41.867 35.788Z" fill="black"/>
<path fill-rule="evenodd" clip-rule="evenodd" d="M41.3243 18.4004C42.1584 17.8665 43.2268 17.8665 44.061 18.4004L65.2147 31.9389C66.3955 32.6946 66.7403 34.2645 65.9847 35.4453C65.2286 36.6261 63.659 36.9707 62.4782 36.215L60.4618 34.9246V55.2308C60.4618 58.9695 57.4312 62 53.6926 62H31.6926C27.9541 62 24.9234 58.9695 24.9234 55.2308V34.9246L22.9071 36.215C21.7263 36.9707 20.1564 36.6261 19.4007 35.4453C18.645 34.2645 18.9896 32.6946 20.1704 31.9389L41.3243 18.4004ZM40.3135 31.6643C40.7526 31.4527 41.274 31.5113 41.6553 31.8149C43.4549 33.2483 44.7806 35.4358 45.6719 37.4654C46.1828 38.6289 46.5759 39.7983 46.8391 40.8303C47.0597 40.496 47.2562 40.1266 47.4541 39.7546C47.4999 39.6685 47.5458 39.5822 47.592 39.4962C47.8385 39.0383 48.3393 38.777 48.8559 38.8369C49.3724 38.8967 49.8003 39.2657 49.9353 39.7679C51.3932 45.1865 50.729 48.7811 48.8939 51.1035C47.1001 53.3735 44.4383 54.0939 42.6575 54.3697C42.523 54.3905 42.386 54.3896 42.2518 54.3669C38.7753 53.7795 36.1975 51.6781 35.1539 48.9282C34.1028 46.1584 34.683 42.9231 37.131 40.2771C39.1342 38.1119 39.5953 34.7951 39.5953 32.8077C39.5953 32.3203 39.8744 31.876 40.3135 31.6643Z" fill="black"/>
</svg>
