<svg width="24" height="24" viewBox="0 0 24 24" fill="none" xmlns="http://www.w3.org/2000/svg">
<path d="M16.5 0H7.5C5.51088 0 3.60322 0.790176 2.1967 2.1967C0.790176 3.60322 0 5.51088 0 7.5L0 16.5C0 18.4891 0.790176 20.3968 2.1967 21.8033C3.60322 23.2098 5.51088 24 7.5 24H16.5C18.4891 24 20.3968 23.2098 21.8033 21.8033C23.2098 20.3968 24 18.4891 24 16.5V7.5C24 5.51088 23.2098 3.60322 21.8033 2.1967C20.3968 0.790176 18.4891 0 16.5 0ZM21.75 16.5C21.75 19.395 19.395 21.75 16.5 21.75H7.5C4.605 21.75 2.25 19.395 2.25 16.5V7.5C2.25 4.605 4.605 2.25 7.5 2.25H16.5C19.395 2.25 21.75 4.605 21.75 7.5V16.5Z" fill="url(#paint0_linear_407_502)"/>
<path d="M12.0006 6.3158C10.4931 6.3158 9.04727 6.91467 7.98127 7.98066C6.91528 9.04666 6.31641 10.4925 6.31641 12C6.31641 13.5076 6.91528 14.9534 7.98127 16.0194C9.04727 17.0853 10.4931 17.6842 12.0006 17.6842C13.5082 17.6842 14.954 17.0853 16.02 16.0194C17.086 14.9534 17.6848 13.5076 17.6848 12C17.6848 10.4925 17.086 9.04666 16.02 7.98066C14.954 6.91467 13.5082 6.3158 12.0006 6.3158ZM12.0006 15.5526C11.0587 15.5515 10.1558 15.1769 9.48977 14.5108C8.82377 13.8448 8.44911 12.9419 8.44799 12C8.44799 10.0404 10.0424 8.44737 12.0006 8.44737C13.9588 8.44737 15.5532 10.0404 15.5532 12C15.5532 13.9582 13.9588 15.5526 12.0006 15.5526Z" fill="url(#paint1_linear_407_502)"/>
<path d="M18.3152 6.31577C18.664 6.31577 18.9468 6.033 18.9468 5.68419C18.9468 5.33538 18.664 5.05261 18.3152 5.05261C17.9664 5.05261 17.6836 5.33538 17.6836 5.68419C17.6836 6.033 17.9664 6.31577 18.3152 6.31577Z" fill="url(#paint2_linear_407_502)"/>
<defs>
<linearGradient id="paint0_linear_407_502" x1="2.196" y1="21.804" x2="21.804" y2="2.196" gradientUnits="userSpaceOnUse">
<stop stop-color="#FFC107"/>
<stop offset="0.507" stop-color="#F44336"/>
<stop offset="0.99" stop-color="#9C27B0"/>
</linearGradient>
<linearGradient id="paint1_linear_407_502" x1="7.98188" y1="16.0187" x2="16.0194" y2="7.98127" gradientUnits="userSpaceOnUse">
<stop stop-color="#FFC107"/>
<stop offset="0.507" stop-color="#F44336"/>
<stop offset="0.99" stop-color="#9C27B0"/>
</linearGradient>
<linearGradient id="paint2_linear_407_502" x1="17.8684" y1="6.13092" x2="18.7619" y2="5.23746" gradientUnits="userSpaceOnUse">
<stop stop-color="#FFC107"/>
<stop offset="0.507" stop-color="#F44336"/>
<stop offset="0.99" stop-color="#9C27B0"/>
</linearGradient>
</defs>
</svg>
