<svg width="16" height="17" viewBox="0 0 16 17" fill="none" xmlns="http://www.w3.org/2000/svg">
<path d="M4.66145 2.20305C3.95839 2.91942 3.95839 4.07863 4.67447 4.79499L6.23682 6.35797C7.70804 7.82977 7.70804 10.2263 6.23682 11.6981L3.37251 8.83269C2.6369 8.09678 2.26584 7.12643 2.26584 6.1626C2.26584 5.19876 2.6369 4.22841 3.37251 3.49251L4.64192 2.22259C4.64843 2.21608 4.65494 2.20957 4.66145 2.20305Z" fill="#008080" stroke="white" stroke-width="1.27536" stroke-miterlimit="10"/>
<path d="M5.91126 6.03154L4.6744 4.79418C3.95832 4.07782 3.95181 2.92512 4.66138 2.20224C5.36444 1.51193 6.48412 1.52495 7.18067 2.22178C7.5322 2.57345 7.70796 3.03583 7.70796 3.4917C7.70796 3.94757 7.5322 4.40995 7.18067 4.76162L6.88773 5.05468" fill="#008080"/>
<path d="M5.91126 6.03154L4.6744 4.79418C3.95832 4.07782 3.95181 2.92512 4.66138 2.20224C5.36444 1.51193 6.48412 1.52495 7.18067 2.22178C7.5322 2.57345 7.70796 3.03583 7.70796 3.4917C7.70796 3.94757 7.5322 4.40995 7.18067 4.76162L6.88773 5.05468" stroke="white" stroke-width="1.27536" stroke-miterlimit="10"/>
<path d="M12.0499 14.9992C12.753 14.2828 12.753 13.1236 12.0369 12.4072L10.4746 10.8443C9.00334 9.37245 9.00334 6.97588 10.4746 5.50408L13.3389 8.36954C14.0745 9.10544 14.4455 10.0758 14.4455 11.0396C14.4455 12.0035 14.0745 12.9738 13.3389 13.7097L12.0695 14.9796C12.0564 14.9927 12.0499 14.9992 12.0499 14.9992Z" fill="#008080" stroke="white" stroke-width="1.27536" stroke-miterlimit="10"/>
<path d="M10.7932 11.1765L12.0301 12.4138C12.7462 13.1302 12.7527 14.2829 12.0431 15.0058C11.34 15.6961 10.2204 15.6831 9.52381 14.9862C9.17228 14.6346 8.99651 14.1722 8.99651 13.7163C8.99651 13.2604 9.17228 12.7981 9.52381 12.4464L9.82326 12.1468" fill="#008080"/>
<path d="M10.7932 11.1765L12.0301 12.4138C12.7462 13.1302 12.7527 14.2829 12.0431 15.0058C11.34 15.6961 10.2204 15.6831 9.52381 14.9862C9.17228 14.6346 8.99651 14.1722 8.99651 13.7163C8.99651 13.2604 9.17228 12.7981 9.52381 12.4464L9.82326 12.1468" stroke="white" stroke-width="1.27536" stroke-miterlimit="10"/>
</svg>
