<svg width="30" height="40" viewBox="0 0 30 40" fill="none" xmlns="http://www.w3.org/2000/svg">
<path fill-rule="evenodd" clip-rule="evenodd" d="M18.1925 0C19.2587 0 20.2487 0.21879 21.1317 0.681273C21.8861 1.0764 22.7426 1.62053 23.3758 2.43303L23.3622 2.44197L23.3746 2.45724L25.9436 5.5094L25.9526 5.5203L26.8483 6.61489C27.9268 7.92036 28.5882 9.42386 28.8323 10.9722C28.1058 10.6368 27.3001 10.4254 26.449 10.3674C26.1821 9.46799 25.7292 8.60566 25.0901 7.8325L25.0869 7.82856L24.5669 7.19314C24.3752 8.14677 23.9348 9.06525 23.2456 9.8571L16.5618 17.7699L20.4762 22.3052L22.9417 19.3881V22.2173C22.9417 22.3624 22.9538 22.505 22.9773 22.6441L21.8797 23.9425L29.5364 32.9746C30.2451 33.8105 30.1293 35.0062 29.2709 35.7147L24.7908 39.4122C23.8426 40.1949 22.3696 40.078 21.5821 39.1578L15.2016 31.7017L8.7622 39.2266C8.02 40.094 6.65612 40.2557 5.69751 39.5901L0.873166 36.2403C-0.107372 35.5595 -0.289949 34.275 0.467463 33.3867L8.5263 23.9357L3.56334 18.1654L3.55683 18.1576C0.766946 14.7825 0.766395 10.0823 3.55507 6.70659L3.55683 6.70457L4.45077 5.61197L7.02513 2.55341C7.06414 2.50539 7.10414 2.45777 7.14501 2.41054C8.36785 0.858142 10.4001 0 12.4104 0H18.1925ZM15.163 16.1264L20.2315 10.1261C19.5718 9.79771 18.823 9.60321 18.0929 9.60321H12.3107C11.5183 9.60321 10.7469 9.78327 10.0941 10.1256L15.163 16.1264ZM21.5928 8.51497C22.7595 7.09912 22.7676 5.10017 21.6174 3.67613L21.5071 3.54513L21.5232 3.53352C21.1613 3.10119 20.6456 2.75292 20.0384 2.43491C19.5258 2.16644 18.9207 2.01975 18.1925 2.01975H12.4104C11.0408 2.01975 9.69349 2.61524 8.92054 3.60698L8.90875 3.62212L8.78204 3.77273C8.21194 4.47852 7.92953 5.30353 7.92953 6.12661C7.92953 6.94512 8.20742 7.8227 8.73951 8.51659C9.8126 7.88703 11.0741 7.58346 12.3107 7.58346H18.0929C19.3398 7.58346 20.5637 7.93964 21.5928 8.51497ZM9.93083 25.5685L2.20387 34.6305L7.02822 37.9801L13.8 30.0669L9.93083 25.5685ZM7.1578 9.94879C6.47266 9.16129 6.03843 8.22039 5.84428 7.27545L5.3166 7.92036L5.31341 7.92419C3.12127 10.5762 3.11918 14.2764 5.30713 16.9304L16.0687 29.4422L23.3161 37.9113L27.7963 34.2138L19.6212 24.5702L14.3376 18.4485L7.1578 9.94879Z" fill="#DCD6D6"/>
<path d="M25.343 12.1186C26.5671 12.1272 27.5467 13.0332 27.5467 14.1383C27.5467 15.2486 26.5576 16.158 25.3253 16.158C24.7168 16.158 24.2235 16.6101 24.2235 17.1679V20.1975C24.2235 20.7553 24.7168 21.2074 25.3253 21.2074C25.9339 21.2074 26.4272 20.7553 26.4272 20.1975V18.0514C28.3349 17.6049 29.7504 16.0256 29.7504 14.1383C29.7504 11.9238 27.8018 10.1336 25.3958 10.0993L25.3745 10.0989L25.3607 10.0988H25.3253C25.3135 10.0988 25.3019 10.099 25.2902 10.0993C22.8842 10.1336 20.9355 11.9238 20.9355 14.1383C20.9355 14.696 21.429 15.1481 22.0374 15.1481C22.646 15.1481 23.1393 14.696 23.1393 14.1383C23.1393 13.0332 24.1188 12.1272 25.343 12.1186ZM26.4448 23.2271C26.4448 23.7849 25.9515 24.237 25.343 24.237C24.7344 24.237 24.2411 23.7849 24.2411 23.2271C24.2411 22.6694 24.7344 22.2173 25.343 22.2173C25.9515 22.2173 26.4448 22.6694 26.4448 23.2271Z" fill="#DCD6D6"/>
</svg>
