<svg width="40" height="40" viewBox="0 0 40 40" fill="none" xmlns="http://www.w3.org/2000/svg">
<path d="M29.6016 17.5093C29.5952 17.5024 28.9638 16.7823 29.0222 15.7299C29.0567 15.1118 28.7629 14.6122 28.1954 14.3231C27.8331 14.1384 27.4044 14.0578 26.9505 13.9724C25.9836 13.7904 25.3271 13.6241 25.0247 12.994C24.2636 11.4088 23.1069 11.8171 22.4159 12.061C21.7279 12.3038 21.0781 12.533 20.0238 11.8818C19.1972 11.3712 18.6599 11.1979 18.1701 11.2822C17.5669 11.3865 17.2781 11.8436 17.0673 12.1774C16.7616 12.6615 16.4151 13.2101 14.8432 13.3358C13.4081 13.4507 12.3377 13.9707 11.6617 14.8815C10.6047 16.3058 10.9854 18.1289 11.0021 18.2059C11.082 18.573 11.4068 18.8238 11.7678 18.8238L29.6016 17.5093Z" fill="#F3A31A"/>
<path d="M23.5337 29.8039H15.6906C15.2574 29.8039 14.9062 29.4527 14.9062 29.0196V25.8823C14.9062 25.4492 15.2574 25.098 15.6906 25.098H23.5337C23.9668 25.098 24.318 25.4492 24.318 25.8823V29.0196C24.318 29.4527 23.9668 29.8039 23.5337 29.8039Z" fill="#F7F5E5"/>
<path d="M23.8078 26.6668H16.1999C12.2428 26.6668 9.02344 23.4474 9.02344 19.4903V18.0393C9.02344 17.6061 9.37465 17.255 9.80775 17.255H30.1999C30.633 17.255 30.9842 17.6061 30.9842 18.0393V19.4903C30.9842 23.4474 27.7649 26.6668 23.8078 26.6668Z" fill="#F7F5E5"/>
<path d="M34.1422 5.85788C30.3646 2.08039 25.3422 0 20 0C14.6578 0 9.63537 2.08039 5.85788 5.85788C2.08039 9.63537 0 14.6578 0 20C0 25.3422 2.08031 30.3646 5.85788 34.1422C9.63545 37.9198 14.6578 40 20 40C25.3422 40 30.3646 37.9197 34.1422 34.1421C37.9198 30.3646 40 25.3422 40 20C40 14.6578 37.9197 9.63537 34.1422 5.85788ZM20 1.56863C25.9079 1.56863 31.1749 4.36322 34.5502 8.69929L4.53969 30.0231C2.66149 27.1361 1.56863 23.6935 1.56863 20C1.56863 9.83686 9.83694 1.56863 20 1.56863ZM20 38.4314C14.0921 38.4314 8.8251 35.6368 5.4498 31.3006L35.4604 9.97686C37.3385 12.8639 38.4314 16.3065 38.4314 20C38.4314 30.1631 30.1631 38.4314 20 38.4314Z" fill="#F7F5E5"/>
</svg>
