<svg width="14" height="11" viewBox="0 0 14 11" fill="none" xmlns="http://www.w3.org/2000/svg">
<path d="M2.264 10.552C1.624 10.488 1.128 10.248 0.776 9.832C0.456 9.416 0.312 8.92 0.344 8.344C0.44 6.488 0.888 4.888 1.688 3.544C2.52 2.2 3.464 1.352 4.52 0.999997C4.68 0.935998 4.824 0.903998 4.952 0.903998C5.112 0.903998 5.24 0.919998 5.336 0.951998C5.432 0.983997 5.496 1.032 5.528 1.096C5.56 1.16 5.56 1.24 5.528 1.336C5.528 1.432 5.496 1.528 5.432 1.624C4.92 2.296 4.632 3.288 4.568 4.6C4.536 5.912 4.648 6.904 4.904 7.576C5.192 8.728 5.048 9.544 4.472 10.024C3.896 10.472 3.16 10.648 2.264 10.552ZM10.472 10.552C9.8 10.488 9.304 10.248 8.984 9.832C8.664 9.416 8.52 8.92 8.552 8.344C8.648 6.52 9.096 4.936 9.896 3.592C10.728 2.248 11.672 1.384 12.728 0.999997C12.888 0.935998 13.032 0.903998 13.16 0.903998C13.32 0.903998 13.432 0.919998 13.496 0.951998C13.592 0.983997 13.656 1.032 13.688 1.096C13.752 1.16 13.768 1.24 13.736 1.336C13.736 1.432 13.704 1.528 13.64 1.624C13.128 2.296 12.84 3.288 12.776 4.6C12.744 5.912 12.856 6.904 13.112 7.576C13.4 8.728 13.256 9.544 12.68 10.024C12.104 10.472 11.368 10.648 10.472 10.552Z" fill="#17545E"/>
</svg>
