<svg width="40" height="36" viewBox="0 0 40 36" fill="none" xmlns="http://www.w3.org/2000/svg">
<mask id="mask0_25_1702" style="mask-type:alpha" maskUnits="userSpaceOnUse" x="0" y="0" width="40" height="36">
<rect width="40" height="35.8974" fill="#D9D9D9"/>
</mask>
<g mask="url(#mask0_25_1702)">
<path d="M35.0424 16.5278V28.4188C35.0424 29.2415 34.716 29.9457 34.0632 30.5315C33.4104 31.1173 32.6257 31.4103 31.7091 31.4103H8.37572C7.45905 31.4103 6.67433 31.1173 6.02155 30.5315C5.36877 29.9457 5.04238 29.2415 5.04238 28.4188V16.5278C4.40349 16.0043 3.91044 15.3312 3.56322 14.5086C3.21599 13.6859 3.20905 12.7885 3.54238 11.8162L5.29238 6.73077C5.51461 6.08262 5.91044 5.54666 6.47988 5.12287C7.04933 4.69908 7.70905 4.48718 8.45905 4.48718H31.6257C32.3757 4.48718 33.0285 4.69284 33.5841 5.10417C34.1396 5.51549 34.5424 6.0577 34.7924 6.73077L36.5424 11.8162C36.8757 12.7885 36.8688 13.6734 36.5215 14.4712C36.1743 15.2689 35.6813 15.9544 35.0424 16.5278ZM23.7091 14.9573C24.4591 14.9573 25.0285 14.7267 25.4174 14.2655C25.8063 13.8043 25.959 13.287 25.8757 12.7137L24.9591 7.47864H21.709V13.0128C21.709 13.5363 21.9035 13.9913 22.2924 14.3777C22.6813 14.7641 23.1535 14.9573 23.7091 14.9573ZM16.2091 14.9573C16.8479 14.9573 17.3688 14.7641 17.7716 14.3777C18.1743 13.9913 18.3757 13.5363 18.3757 13.0128V7.47864H15.1257L14.2091 12.7137C14.0979 13.312 14.2438 13.8355 14.6466 14.2842C15.0493 14.7329 15.5702 14.9573 16.2091 14.9573ZM8.79238 14.9573C9.29238 14.9573 9.72988 14.7952 10.1049 14.4712C10.4799 14.1471 10.709 13.7358 10.7924 13.2372L11.7091 7.47864H8.45905L6.79238 12.4893C6.62572 12.9879 6.71599 13.5239 7.06322 14.0972C7.41044 14.6706 7.98683 14.9573 8.79238 14.9573ZM31.2924 14.9573C32.0979 14.9573 32.6813 14.6706 33.0424 14.0972C33.4035 13.5239 33.4868 12.9879 33.2924 12.4893L31.5424 7.47864H28.3757L29.2924 13.2372C29.3757 13.7358 29.6049 14.1471 29.9799 14.4712C30.3549 14.7952 30.7924 14.9573 31.2924 14.9573ZM8.37572 28.4188H31.7091V17.8739C31.5702 17.9238 31.4799 17.9487 31.4382 17.9487H31.2924C30.5424 17.9487 29.8827 17.8365 29.3132 17.6122C28.7438 17.3878 28.1813 17.0264 27.6257 16.5278C27.1257 16.9765 26.5563 17.3255 25.9174 17.5748C25.2785 17.8241 24.5979 17.9487 23.8757 17.9487C23.1257 17.9487 22.4243 17.8241 21.7716 17.5748C21.1188 17.3255 20.5424 16.9765 20.0424 16.5278C19.5702 16.9765 19.0216 17.3255 18.3966 17.5748C17.7716 17.8241 17.0979 17.9487 16.3757 17.9487C15.5702 17.9487 14.841 17.8241 14.1882 17.5748C13.5354 17.3255 12.959 16.9765 12.459 16.5278C11.8757 17.0513 11.2993 17.419 10.7299 17.6309C10.1604 17.8428 9.51461 17.9487 8.79238 17.9487H8.60488C8.53544 17.9487 8.45905 17.9238 8.37572 17.8739V28.4188Z" fill="#F7F5E5"/>
</g>
</svg>
