<svg width="252" height="55" viewBox="0 0 252 55" fill="none" xmlns="http://www.w3.org/2000/svg">
<rect y="9" width="183" height="40" rx="5" fill="url(#paint0_linear_161_1836)"/>
<path d="M26.1672 38.192C25.7352 38.192 25.3832 38.088 25.1112 37.88C24.8552 37.672 24.6472 37.344 24.4872 36.896L19.4712 22.712C19.2952 22.2 19.3272 21.768 19.5672 21.416C19.8232 21.064 20.2472 20.888 20.8392 20.888C21.2712 20.888 21.6072 20.992 21.8472 21.2C22.0872 21.392 22.2792 21.704 22.4232 22.136L26.7432 34.952H25.7832L30.2952 22.16C30.4552 21.728 30.6552 21.408 30.8952 21.2C31.1352 20.992 31.4472 20.888 31.8312 20.888C32.2152 20.888 32.5192 20.992 32.7432 21.2C32.9672 21.408 33.1592 21.736 33.3192 22.184L37.6872 34.952H36.8472L41.2392 22.136C41.3832 21.72 41.5752 21.408 41.8152 21.2C42.0552 20.992 42.3832 20.888 42.7992 20.888C43.3112 20.888 43.6872 21.064 43.9272 21.416C44.1672 21.768 44.1992 22.2 44.0232 22.712L38.9592 36.92C38.7992 37.352 38.5912 37.672 38.3352 37.88C38.0792 38.088 37.7352 38.192 37.3032 38.192C36.8712 38.192 36.5272 38.088 36.2712 37.88C36.0152 37.672 35.8072 37.344 35.6472 36.896L31.4712 24.992H32.0232L27.7992 36.92C27.6392 37.352 27.4312 37.672 27.1752 37.88C26.9352 38.088 26.5992 38.192 26.1672 38.192ZM49.0803 38.24C48.2323 38.24 47.4723 38.08 46.8003 37.76C46.1443 37.424 45.6243 36.976 45.2402 36.416C44.8723 35.856 44.6883 35.224 44.6883 34.52C44.6883 33.656 44.9123 32.976 45.3603 32.48C45.8083 31.968 46.5363 31.6 47.5443 31.376C48.5523 31.152 49.9043 31.04 51.6003 31.04H52.8003V32.768H51.6243C50.6323 32.768 49.8403 32.816 49.2483 32.912C48.6563 33.008 48.2323 33.176 47.9763 33.416C47.7363 33.64 47.6163 33.96 47.6163 34.376C47.6163 34.904 47.8003 35.336 48.1683 35.672C48.5363 36.008 49.0483 36.176 49.7043 36.176C50.2323 36.176 50.6963 36.056 51.0963 35.816C51.5123 35.56 51.8403 35.216 52.0803 34.784C52.3203 34.352 52.4403 33.856 52.4403 33.296V30.536C52.4403 29.736 52.2643 29.16 51.9123 28.808C51.5603 28.456 50.9683 28.28 50.1363 28.28C49.6723 28.28 49.1683 28.336 48.6243 28.448C48.0963 28.56 47.5363 28.752 46.9443 29.024C46.6403 29.168 46.3683 29.208 46.1283 29.144C45.9043 29.08 45.7283 28.952 45.6003 28.76C45.4723 28.552 45.4083 28.328 45.4083 28.088C45.4083 27.848 45.4723 27.616 45.6003 27.392C45.7283 27.152 45.9443 26.976 46.2483 26.864C46.9843 26.56 47.6883 26.344 48.3603 26.216C49.0483 26.088 49.6723 26.024 50.2323 26.024C51.3843 26.024 52.3283 26.2 53.0643 26.552C53.8163 26.904 54.3763 27.44 54.7443 28.16C55.1123 28.864 55.2963 29.776 55.2963 30.896V36.656C55.2963 37.152 55.1763 37.536 54.9363 37.808C54.6963 38.064 54.3523 38.192 53.9043 38.192C53.4563 38.192 53.1043 38.064 52.8483 37.808C52.6083 37.536 52.4883 37.152 52.4883 36.656V35.504H52.6803C52.5683 36.064 52.3443 36.552 52.0083 36.968C51.6883 37.368 51.2803 37.68 50.7843 37.904C50.2883 38.128 49.7203 38.24 49.0803 38.24ZM63.7173 38.24C62.6773 38.24 61.8053 38.064 61.1013 37.712C60.4133 37.36 59.9013 36.848 59.5653 36.176C59.2293 35.488 59.0613 34.64 59.0613 33.632V28.52H57.8133C57.4293 28.52 57.1333 28.424 56.9253 28.232C56.7172 28.024 56.6132 27.744 56.6132 27.392C56.6132 27.024 56.7172 26.744 56.9253 26.552C57.1333 26.36 57.4293 26.264 57.8133 26.264H59.0613V24.08C59.0613 23.584 59.1893 23.208 59.4453 22.952C59.7173 22.696 60.0933 22.568 60.5733 22.568C61.0533 22.568 61.4213 22.696 61.6773 22.952C61.9333 23.208 62.0613 23.584 62.0613 24.08V26.264H64.6053C64.9893 26.264 65.2853 26.36 65.4933 26.552C65.7013 26.744 65.8053 27.024 65.8053 27.392C65.8053 27.744 65.7013 28.024 65.4933 28.232C65.2853 28.424 64.9893 28.52 64.6053 28.52H62.0613V33.464C62.0613 34.232 62.2293 34.808 62.5653 35.192C62.9013 35.576 63.4453 35.768 64.1973 35.768C64.4693 35.768 64.7093 35.744 64.9173 35.696C65.1253 35.648 65.3093 35.616 65.4693 35.6C65.6613 35.584 65.8213 35.648 65.9493 35.792C66.0773 35.92 66.1413 36.192 66.1413 36.608C66.1413 36.928 66.0853 37.216 65.9733 37.472C65.8773 37.712 65.6933 37.88 65.4213 37.976C65.2133 38.04 64.9413 38.096 64.6053 38.144C64.2693 38.208 63.9733 38.24 63.7173 38.24ZM72.859 38.24C71.627 38.24 70.555 37.992 69.643 37.496C68.731 36.984 68.027 36.264 67.531 35.336C67.035 34.408 66.787 33.32 66.787 32.072C66.787 31.128 66.923 30.288 67.195 29.552C67.483 28.8 67.891 28.168 68.419 27.656C68.947 27.128 69.587 26.728 70.339 26.456C71.091 26.168 71.931 26.024 72.859 26.024C73.387 26.024 73.955 26.096 74.563 26.24C75.187 26.384 75.771 26.624 76.315 26.96C76.571 27.12 76.739 27.312 76.819 27.536C76.899 27.76 76.915 27.992 76.867 28.232C76.819 28.456 76.715 28.656 76.555 28.832C76.411 28.992 76.227 29.096 76.003 29.144C75.779 29.176 75.531 29.12 75.259 28.976C74.907 28.768 74.547 28.616 74.179 28.52C73.811 28.408 73.459 28.352 73.123 28.352C72.595 28.352 72.131 28.44 71.731 28.616C71.331 28.776 70.987 29.016 70.699 29.336C70.427 29.64 70.219 30.024 70.075 30.488C69.931 30.952 69.859 31.488 69.859 32.096C69.859 33.28 70.139 34.216 70.699 34.904C71.275 35.576 72.083 35.912 73.123 35.912C73.459 35.912 73.803 35.864 74.155 35.768C74.523 35.672 74.891 35.52 75.259 35.312C75.531 35.168 75.771 35.12 75.979 35.168C76.203 35.216 76.387 35.328 76.531 35.504C76.675 35.664 76.763 35.864 76.795 36.104C76.827 36.328 76.795 36.552 76.699 36.776C76.619 37 76.459 37.184 76.219 37.328C75.691 37.648 75.131 37.88 74.539 38.024C73.947 38.168 73.387 38.24 72.859 38.24ZM80.2433 38.192C79.7633 38.192 79.3953 38.064 79.1393 37.808C78.8833 37.536 78.7553 37.152 78.7553 36.656V22.4C78.7553 21.904 78.8833 21.528 79.1393 21.272C79.3953 21.016 79.7633 20.888 80.2433 20.888C80.7233 20.888 81.0913 21.016 81.3473 21.272C81.6193 21.528 81.7553 21.904 81.7553 22.4V28.616H81.4193C81.7713 27.768 82.3153 27.128 83.0513 26.696C83.8033 26.248 84.6513 26.024 85.5953 26.024C86.5393 26.024 87.3153 26.2 87.9233 26.552C88.5313 26.904 88.9873 27.44 89.2913 28.16C89.5953 28.864 89.7473 29.76 89.7473 30.848V36.656C89.7473 37.152 89.6193 37.536 89.3633 37.808C89.1073 38.064 88.7393 38.192 88.2593 38.192C87.7793 38.192 87.4033 38.064 87.1313 37.808C86.8753 37.536 86.7473 37.152 86.7473 36.656V30.992C86.7473 30.08 86.5713 29.416 86.2193 29C85.8833 28.584 85.3553 28.376 84.6353 28.376C83.7553 28.376 83.0513 28.656 82.5233 29.216C82.0113 29.76 81.7553 30.488 81.7553 31.4V36.656C81.7553 37.68 81.2513 38.192 80.2433 38.192ZM101.038 38.192C100.59 38.192 100.246 38.064 100.006 37.808C99.766 37.552 99.646 37.2 99.646 36.752V22.328C99.646 21.864 99.774 21.512 100.03 21.272C100.286 21.016 100.638 20.888 101.086 20.888C101.486 20.888 101.798 20.968 102.022 21.128C102.262 21.272 102.478 21.528 102.67 21.896L108.598 32.864H107.83L113.758 21.896C113.95 21.528 114.158 21.272 114.382 21.128C114.606 20.968 114.918 20.888 115.318 20.888C115.766 20.888 116.11 21.016 116.35 21.272C116.59 21.512 116.71 21.864 116.71 22.328V36.752C116.71 37.2 116.59 37.552 116.35 37.808C116.126 38.064 115.782 38.192 115.318 38.192C114.87 38.192 114.526 38.064 114.286 37.808C114.046 37.552 113.926 37.2 113.926 36.752V25.64H114.454L109.414 34.832C109.254 35.104 109.086 35.304 108.91 35.432C108.734 35.56 108.494 35.624 108.19 35.624C107.886 35.624 107.638 35.56 107.446 35.432C107.254 35.288 107.086 35.088 106.942 34.832L101.854 25.616H102.43V36.752C102.43 37.2 102.31 37.552 102.07 37.808C101.846 38.064 101.502 38.192 101.038 38.192ZM125.498 38.24C124.282 38.24 123.226 37.992 122.33 37.496C121.434 37 120.738 36.296 120.242 35.384C119.746 34.456 119.498 33.368 119.498 32.12C119.498 31.176 119.634 30.336 119.906 29.6C120.194 28.848 120.602 28.208 121.13 27.68C121.658 27.136 122.29 26.728 123.026 26.456C123.762 26.168 124.586 26.024 125.498 26.024C126.714 26.024 127.77 26.272 128.666 26.768C129.562 27.264 130.258 27.968 130.754 28.88C131.25 29.792 131.498 30.872 131.498 32.12C131.498 33.064 131.354 33.912 131.066 34.664C130.794 35.416 130.394 36.064 129.866 36.608C129.338 37.136 128.706 37.544 127.97 37.832C127.234 38.104 126.41 38.24 125.498 38.24ZM125.498 35.96C126.09 35.96 126.61 35.816 127.058 35.528C127.506 35.24 127.85 34.816 128.09 34.256C128.346 33.68 128.474 32.968 128.474 32.12C128.474 30.84 128.202 29.888 127.658 29.264C127.114 28.624 126.394 28.304 125.498 28.304C124.906 28.304 124.386 28.448 123.938 28.736C123.49 29.008 123.138 29.432 122.882 30.008C122.642 30.568 122.522 31.272 122.522 32.12C122.522 33.384 122.794 34.344 123.338 35C123.882 35.64 124.602 35.96 125.498 35.96ZM135.51 38.192C135.014 38.192 134.63 38.064 134.358 37.808C134.102 37.536 133.974 37.152 133.974 36.656V27.584C133.974 27.088 134.102 26.712 134.358 26.456C134.614 26.2 134.974 26.072 135.438 26.072C135.902 26.072 136.262 26.2 136.518 26.456C136.774 26.712 136.902 27.088 136.902 27.584V29.096H136.662C136.886 28.136 137.326 27.408 137.982 26.912C138.638 26.416 139.51 26.12 140.598 26.024C140.934 25.992 141.198 26.08 141.39 26.288C141.598 26.48 141.718 26.784 141.75 27.2C141.782 27.6 141.686 27.928 141.462 28.184C141.254 28.424 140.934 28.568 140.502 28.616L139.974 28.664C138.998 28.76 138.262 29.064 137.766 29.576C137.27 30.072 137.022 30.776 137.022 31.688V36.656C137.022 37.152 136.894 37.536 136.638 37.808C136.382 38.064 136.006 38.192 135.51 38.192ZM148.969 38.24C147.641 38.24 146.497 37.992 145.537 37.496C144.577 37 143.833 36.296 143.305 35.384C142.793 34.472 142.537 33.392 142.537 32.144C142.537 30.928 142.785 29.864 143.281 28.952C143.793 28.04 144.489 27.328 145.369 26.816C146.265 26.288 147.281 26.024 148.417 26.024C149.249 26.024 149.993 26.16 150.649 26.432C151.321 26.704 151.889 27.096 152.353 27.608C152.833 28.12 153.193 28.744 153.433 29.48C153.689 30.2 153.817 31.016 153.817 31.928C153.817 32.216 153.713 32.44 153.505 32.6C153.313 32.744 153.033 32.816 152.665 32.816H144.961V31.088H151.705L151.321 31.448C151.321 30.712 151.209 30.096 150.985 29.6C150.777 29.104 150.465 28.728 150.049 28.472C149.649 28.2 149.145 28.064 148.537 28.064C147.865 28.064 147.289 28.224 146.809 28.544C146.345 28.848 145.985 29.288 145.729 29.864C145.489 30.424 145.369 31.096 145.369 31.88V32.048C145.369 33.36 145.673 34.344 146.281 35C146.905 35.64 147.817 35.96 149.017 35.96C149.433 35.96 149.897 35.912 150.409 35.816C150.937 35.704 151.433 35.52 151.897 35.264C152.233 35.072 152.529 34.992 152.785 35.024C153.041 35.04 153.241 35.128 153.385 35.288C153.545 35.448 153.641 35.648 153.673 35.888C153.705 36.112 153.657 36.344 153.529 36.584C153.417 36.824 153.217 37.032 152.929 37.208C152.369 37.56 151.721 37.824 150.985 38C150.265 38.16 149.593 38.24 148.969 38.24Z" fill="white"/>
<path d="M234.812 0H214.188C209.629 0 205.257 1.81082 202.034 5.0341C198.811 8.25738 197 12.6291 197 17.1875V37.8125C197 42.3709 198.811 46.7426 202.034 49.9659C205.257 53.1892 209.629 55 214.188 55H234.812C239.371 55 243.743 53.1892 246.966 49.9659C250.189 46.7426 252 42.3709 252 37.8125V17.1875C252 12.6291 250.189 8.25738 246.966 5.0341C243.743 1.81082 239.371 0 234.812 0ZM246.844 37.8125C246.844 44.4469 241.447 49.8438 234.812 49.8438H214.188C207.553 49.8438 202.156 44.4469 202.156 37.8125V17.1875C202.156 10.5531 207.553 5.15625 214.188 5.15625H234.812C241.447 5.15625 246.844 10.5531 246.844 17.1875V37.8125Z" fill="url(#paint1_linear_161_1836)"/>
<path d="M224.5 14.4736C221.045 14.4736 217.732 15.846 215.289 18.289C212.846 20.7319 211.474 24.0452 211.474 27.4999C211.474 30.9547 212.846 34.268 215.289 36.7109C217.732 39.1539 221.045 40.5263 224.5 40.5263C227.955 40.5263 231.268 39.1539 233.711 36.7109C236.154 34.268 237.526 30.9547 237.526 27.4999C237.526 24.0452 236.154 20.7319 233.711 18.289C231.268 15.846 227.955 14.4736 224.5 14.4736ZM224.5 35.6414C222.341 35.6388 220.272 34.7802 218.746 33.254C217.22 31.7277 216.361 29.6584 216.359 27.4999C216.359 23.0091 220.012 19.3585 224.5 19.3585C228.988 19.3585 232.641 23.0091 232.641 27.4999C232.641 31.9875 228.988 35.6414 224.5 35.6414Z" fill="url(#paint2_linear_161_1836)"/>
<path d="M238.974 14.4737C239.773 14.4737 240.421 13.8257 240.421 13.0263C240.421 12.227 239.773 11.579 238.974 11.579C238.174 11.579 237.526 12.227 237.526 13.0263C237.526 13.8257 238.174 14.4737 238.974 14.4737Z" fill="url(#paint3_linear_161_1836)"/>
<defs>
<linearGradient id="paint0_linear_161_1836" x1="91.5" y1="9" x2="91.5" y2="49" gradientUnits="userSpaceOnUse">
<stop stop-color="#FEB30D"/>
<stop offset="0.583333" stop-color="#D43962"/>
<stop offset="1" stop-color="#9E28AD"/>
</linearGradient>
<linearGradient id="paint1_linear_161_1836" x1="202.032" y1="49.9675" x2="246.968" y2="5.0325" gradientUnits="userSpaceOnUse">
<stop stop-color="#FFC107"/>
<stop offset="0.507" stop-color="#F44336"/>
<stop offset="0.99" stop-color="#9C27B0"/>
</linearGradient>
<linearGradient id="paint2_linear_161_1836" x1="215.29" y1="36.7096" x2="233.71" y2="18.2903" gradientUnits="userSpaceOnUse">
<stop stop-color="#FFC107"/>
<stop offset="0.507" stop-color="#F44336"/>
<stop offset="0.99" stop-color="#9C27B0"/>
</linearGradient>
<linearGradient id="paint3_linear_161_1836" x1="237.95" y1="14.0501" x2="239.997" y2="12.0026" gradientUnits="userSpaceOnUse">
<stop stop-color="#FFC107"/>
<stop offset="0.507" stop-color="#F44336"/>
<stop offset="0.99" stop-color="#9C27B0"/>
</linearGradient>
</defs>
</svg>
